<?xml version="1.0" encoding="UTF-8"?>
<svg id="Layer_2" data-name="Layer 2" xmlns="http://www.w3.org/2000/svg" viewBox="0 0 383.59 383.35">
  <defs>
    <style>
      .cls-1 {
        fill: #2c423b;
      }
    </style>
  </defs>
  <g id="Layer_1-2" data-name="Layer 1">
    <g>
      <path class="cls-1" d="m179.23,383.35H8.57c-9.91-5.61-10.99-12.38-3.39-21.07,9.02-10.31,18.03-20.63,27.07-30.98-3.35-4.4-6.86-8.48-9.78-12.94-24.91-37.91-30.18-77.87-10.35-119.38,16.33-34.17,44.28-56.21,78.85-70.13,32.59-13.13,66.38-16.11,100.88-9.73,36.2,6.7,67.58,22.62,92.59,50.07,37.57,41.25,42.51,97.54,11.87,144.02-22.36,33.92-54.49,54.76-93.32,65.5-7.75,2.14-15.83,3.12-23.75,4.63Zm-43.41-136.37c-.07,12.11,10.1,22.42,22.25,22.56,12.08.14,22.45-10.01,22.64-22.17.2-12.23-10.17-22.73-22.44-22.74-12.13,0-22.39,10.2-22.45,22.35Zm68.12-.02c-.08,12.12,10.07,22.42,22.23,22.57,12.08.15,22.45-9.98,22.66-22.15.21-12.22-10.15-22.74-22.42-22.76-12.13-.02-22.39,10.18-22.47,22.33Zm-113.85,22.57c12.11.04,22.41-10.16,22.51-22.3.1-12.11-10.04-22.43-22.2-22.6-12.23-.17-22.71,10.21-22.69,22.48.02,12.13,10.26,22.38,22.39,22.42Z"/>
      <path class="cls-1" d="m383.59,238.85c-2.84,6.4-7.74,8.63-14.67,8.33-9.94-.42-19.92-.11-29.98-.11-.8-6.88-1.32-13.55-2.38-20.14-4.1-25.46-14.92-47.93-31.39-67.59-28.45-33.96-65.25-53.65-108.36-61.99-34.55-6.68-68.65-4.37-102.17,6.37-.58.19-1.2.25-2.44.5.5-2.43.83-4.58,1.39-6.67,8.37-31.2,27.52-54.4,54.19-71.6C179.91,5.21,215.36-2.67,253.31.79c36.81,3.36,69.26,16.88,95.75,43.11,19,18.81,30.9,41.36,33.88,68.23.06.58.43,1.12.65,1.68v19.47c-.64,3.52-1.24,7.05-1.94,10.56-3.85,19.31-12.39,36.36-25.08,51.33-1.6,1.89-1.8,3.16-.01,4.98,2.18,2.21,4.15,4.64,6.12,7.04,6.99,8.54,13.95,17.11,20.91,25.67v5.99Z"/>
    </g>
  </g>
</svg>