<?xml version="1.0" encoding="UTF-8"?>
<svg id="Layer_2" data-name="Layer 2" xmlns="http://www.w3.org/2000/svg" viewBox="0 0 408.49 290.57">
  <defs>
    <style>
      .cls-1 {
        fill: #2c423a;
      }
    </style>
  </defs>
  <g id="Layer_1-2" data-name="Layer 1">
    <g>
      <path class="cls-1" d="m0,280.19c1.55-7.93,2.68-15.96,4.72-23.76,6.51-24.79,19.55-45.81,38.24-63.24,15.95-14.87,34.45-25.18,55.93-29.75,3.11-.66,6.27-1.07,9.96-1.68-30.99-19.67-46.71-47.31-43.86-83.92,1.84-23.57,12.74-43.14,30.96-58.25,36.66-30.4,91.91-24.78,121.53,12.33,16.52,20.7,22.58,44.43,17.61,70.35-4.96,25.91-19.62,45.46-43.15,59.39,32.56,4.43,58.02,19.95,78.26,44.26,20.25,24.33,30.58,52.4,30.99,84.65H0c0-3.46,0-6.92,0-10.38Z"/>
      <path class="cls-1" d="m327.94,75.34h32.46v48.23h48.08v32.46h-47.84v48.17h-32.37v-47.95h-48.52v-32.36h48.18v-48.54Z"/>
    </g>
  </g>
</svg>