<?xml version="1.0" encoding="UTF-8"?>
<svg id="Layer_2" data-name="Layer 2" xmlns="http://www.w3.org/2000/svg" viewBox="0 0 201.14 222.69">
  <defs>
    <style>
      .cls-1 {
        fill: #2c423a;
      }
    </style>
  </defs>
  <g id="Layer_1-2" data-name="Layer 1">
    <path class="cls-1" d="m200.53,222.69h-74.37v-87.27h-50.42v86.84H.57c-.15-1.89-.45-3.89-.45-5.89C.09,171.34.16,126.3,0,81.27c-.02-5.5,1.66-9.25,6.14-12.58C35.34,46.99,64.45,25.18,93.37,3.12c5.22-3.98,8.87-4.27,14.29-.14,29.15,22.19,58.68,43.88,87.85,66.05,2.69,2.04,5.37,6.17,5.39,9.34.33,47.13.22,94.26.19,141.39,0,.74-.28,1.48-.57,2.94Z"/>
  </g>
</svg>