<?xml version="1.0" encoding="UTF-8"?>
<svg id="Layer_2" data-name="Layer 2" xmlns="http://www.w3.org/2000/svg" viewBox="0 0 187.67 252.36">
  <defs>
    <style>
      .cls-1 {
        fill: #2c423b;
      }
    </style>
  </defs>
  <g id="Layer_1-2" data-name="Layer 1">
    <path class="cls-1" d="m11.03,0h165.62c7.13,2.44,11.03,7.14,11.03,14.96-.04,67.36-.01,134.73-.09,202.09,0,2.39-.43,4.98-1.43,7.13-2.75,5.91-7.93,7.85-14.15,7.85-51.59-.02-103.18-.01-154.77-.01h-3.44c.19,1.34.22,2.39.5,3.37,1.82,6.51,6.89,10.1,14.24,10.1,51.34,0,102.69,0,154.03,0h3.14c-2.95,4.41-6.56,6.82-11.33,6.83-53.56.05-107.12.05-160.68-.03-2.05,0-4.28-.57-6.12-1.48C1.95,248.01-.01,243.1,0,237.01c.06-32.04.03-64.08.03-96.12,0-41.73,0-83.46,0-125.2,0-3.24.31-6.35,2.06-9.22C4.18,3.04,7.46,1.35,11.03,0Zm10.11,82.84c.21,1.62.36,3.25.66,4.85,1.74,9.42,6.84,16.87,14.26,22.57,8.43,6.47,17.77,9.79,28.52,6.1.52-.18,1.51.24,1.96.7,21.69,21.64,43.35,43.31,65.01,64.98.52.52,1,1.24,1.64,1.46,1.5.53,3.09,1.17,4.62,1.1,2.37-.11,4.11-1.53,4.85-3.9.84-2.69.11-4.94-1.87-6.92-21.79-21.77-43.56-43.56-65.38-65.3-.87-.87-1.21-1.49-.74-2.68,1.83-4.58,1.96-9.32.64-14-4.32-15.22-14.22-24.77-29.66-28.3-13.38-3.06-24.36,5.76-24.5,19.34Zm81.12,44.17c2.08-2.16,4.29-4.46,6.54-6.8.84.43,1.55.82,2.28,1.17,3.7,1.77,7.52,2.63,11.67,2.06,6.25-.87,11.18-4.19,15.51-8.41,8.76-8.54,17.34-17.27,25.99-25.92.46-.46.98-.9,1.36-1.43,1.09-1.52,1.16-3.1-.21-4.45-1.28-1.26-2.79-1.3-4.24-.23-.65.49-1.23,1.08-1.81,1.66-8.02,8.01-16.03,16.03-24.05,24.04-.61.61-1.27,1.18-1.63,1.5-1.76-1.54-3.34-2.93-5.01-4.39,8.77-8.77,17.37-17.35,25.96-25.95.64-.64,1.6-1.29,1.71-2.03.18-1.31.28-3.17-.47-3.9-.76-.74-2.6-.58-3.93-.43-.66.08-1.25.99-1.83,1.56-8.08,8.06-16.15,16.14-24.23,24.2-.62.61-1.27,1.19-1.69,1.57-1.73-1.55-3.3-2.96-5.38-4.82.96-.68,1.8-1.1,2.43-1.73,7.98-7.93,15.93-15.9,23.88-23.86.58-.58,1.17-1.16,1.67-1.81,1.12-1.46,1.01-2.98-.24-4.23-1.25-1.25-2.8-1.28-4.26-.28-.67.46-1.24,1.08-1.81,1.66-8.02,8.01-16.04,16.02-24.01,24.07-.62.62-.89,1.59-1.2,2.15-2.28-2.11-3.82-3.54-5.75-5.33.84-.66,1.61-1.14,2.24-1.78,8.03-8,16.04-16.02,24.05-24.04.58-.58,1.18-1.16,1.65-1.82.98-1.4.98-3.09-.35-3.96-1.02-.67-2.68-.66-3.99-.51-.74.09-1.4,1.06-2.03,1.7-7.96,7.95-15.95,15.87-23.85,23.88-2.12,2.15-4.14,4.45-5.93,6.89-3.14,4.27-5.11,9.11-4.44,14.47.43,3.42,1.75,6.73,2.9,10.94-1.72,1.67-4.04,3.94-6.14,5.99,2.83,2.82,5.66,5.64,8.64,8.61Zm-25.77,8.16c-.16.14-.48.39-.76.67-12.43,12.42-24.85,24.84-37.27,37.27-.4.41-.8.83-1.13,1.3-2.64,3.66-.75,8.58,3.65,9.61,2.74.64,4.71-.57,6.54-2.41,12.24-12.26,24.5-24.5,36.74-36.76.38-.38.73-.8.93-1.02-2.95-2.94-5.78-5.76-8.69-8.67Z"/>
  </g>
</svg>