<?xml version="1.0" encoding="UTF-8"?>
<svg id="Layer_2" data-name="Layer 2" xmlns="http://www.w3.org/2000/svg" viewBox="0 0 479.31 511.14">
  <defs>
    <style>
      .cls-1 {
        fill: #2c423a;
      }
    </style>
  </defs>
  <g id="Layer_1-2" data-name="Layer 1">
    <g>
      <path class="cls-1" d="m340.48,511.14c-8.54-3.8-11.11-10.43-11.1-19.6.2-127.56.19-255.13,0-382.69-.01-8.16,2.78-13.68,9.27-18.5,38.44-28.54,76.7-57.33,114.96-86.11,5.35-4.03,10.92-5.74,17.15-2.69,6.39,3.14,8.54,8.64,8.53,15.59-.07,129.06-.07,258.12.01,387.18,0,6.59-2.44,11.34-7.66,15.25-39.15,29.25-78.22,58.62-117.34,87.92-1.83,1.37-3.89,2.43-5.84,3.64h-7.99Zm48.91-225.75c-.1-7.97-7.16-14.89-15.08-14.78-8,.11-14.89,7.14-14.78,15.08.11,8.01,7.14,14.89,15.08,14.78,7.98-.11,14.89-7.16,14.78-15.08Z"/>
      <path class="cls-1" d="m149.79,138.83c0-11.9,0-23.04,0-34.18,0-29.12,0-58.23,0-87.35,0-11.51,5.65-17.25,17.01-17.25,79.21,0,158.42,0,237.63,0,1.16,0,2.32,0,4.63,0-1.85,1.58-2.94,2.63-4.14,3.53-28.2,21.16-56.29,42.47-84.67,63.38-14.12,10.4-20.78,23.98-20.77,41.37.08,102.15.04,204.31.04,306.46v6.24c-1.96.09-3.57.24-5.17.24-42.43.01-84.87.02-127.3,0-11.52,0-17.25-5.65-17.26-17-.01-28.78,0-57.56,0-86.35v-5.49c18.98,6.91,34.27.28,48.82-11.13,17.53-13.75,35.62-26.78,53.37-40.26,23.45-17.81,23.32-53.32-.2-71.04-18.33-13.81-36.97-27.21-55.01-41.4-14.03-11.04-28.89-16.06-46.98-9.77Z"/>
      <path class="cls-1" d="m149.79,195.71c0-5.19.05-9.67-.01-14.14-.08-6.43,2.63-11.31,8.33-14.21,5.76-2.94,11.33-1.9,16.39,1.87,13.46,10.04,26.87,20.15,40.3,30.23,6.12,4.59,12.3,9.1,18.32,13.82,8.8,6.92,8.97,17.85.12,24.59-19.57,14.92-39.3,29.63-59.02,44.36-5.08,3.79-10.68,4.58-16.39,1.54-5.47-2.92-8.08-7.66-8.03-13.88.04-4.61,0-9.23,0-14.31h-6.34c-41.93,0-83.86,0-125.79,0-12.14,0-17.63-5.49-17.64-17.61,0-8.82-.05-17.63.01-26.45.06-9.73,6.13-15.77,15.96-15.78,42.43-.03,84.86-.01,127.28-.01,1.97,0,3.94,0,6.51,0Z"/>
    </g>
  </g>
</svg>