<?xml version="1.0" encoding="UTF-8"?>
<svg id="Layer_2" data-name="Layer 2" xmlns="http://www.w3.org/2000/svg" viewBox="0 0 359.24 323.66">
  <defs>
    <style>
      .cls-1 {
        fill: #2c423b;
      }
    </style>
  </defs>
  <g id="Layer_1-2" data-name="Layer 1">
    <g>
      <path class="cls-1" d="m179.18,39.04c-2.04-2.22-4.17-4.66-6.44-6.97-2.27-2.31-4.59-4.59-7.03-6.72C143.52,5.91,117.89-3.24,88.44,1.15,40.15,8.35,2.57,50.11.15,98.96c-1.57,31.83,8.84,59.43,31.55,81.85,47.33,46.73,94.92,93.19,142.41,139.76,4.21,4.13,6.89,4.13,11.15-.05,47.58-46.65,95.22-93.24,142.68-140.01,19.07-18.79,29.74-41.86,31.12-68.54,1.89-36.73-11.78-67.07-40.6-90.03-35.88-28.58-82.02-29.26-118.25-1.9-7.4,5.59-13.85,12.45-21.04,18.99Z"/>
      <path class="cls-1" d="m179.18,39.04c7.18-6.54,13.63-13.4,21.04-18.99,36.23-27.37,82.37-26.68,118.25,1.9,28.82,22.96,42.49,53.3,40.6,90.03-1.37,26.68-12.05,49.75-31.12,68.54-47.47,46.77-95.11,93.36-142.68,140.01-4.26,4.18-6.94,4.19-11.15.05-47.49-46.56-95.08-93.02-142.41-139.76C8.99,158.39-1.42,130.79.15,98.96,2.57,50.11,40.15,8.35,88.44,1.15c29.45-4.39,55.08,4.76,77.28,24.19,2.44,2.13,4.76,4.41,7.03,6.72,2.26,2.31,4.39,4.75,6.44,6.97Z"/>
    </g>
  </g>
</svg>