<?xml version="1.0" encoding="UTF-8"?>
<svg id="Layer_2" data-name="Layer 2" xmlns="http://www.w3.org/2000/svg" viewBox="0 0 409.6 408.74">
  <defs>
    <style>
      .cls-1 {
        fill: #2c423b;
      }
    </style>
  </defs>
  <g id="Layer_1-2" data-name="Layer 1">
    <path class="cls-1" d="m409.6,190.83v27.15c-.6,4.86-1.1,9.73-1.83,14.57-7.19,48.11-28.13,89.25-64.18,122.02-47.48,43.16-103.66,60.26-167.25,52.28-30.39-3.81-58.54-14.5-83.97-31.63C42.31,341.49,12.18,294.85,2.35,235.28c-.95-5.74-1.58-11.54-2.35-17.31,0-9.05,0-18.1,0-27.15.63-4.99,1.16-9.99,1.89-14.96,4.41-30.11,14.55-58.14,31.59-83.42C67.27,42.33,114.07,12.17,173.88,2.35c5.75-.94,11.54-1.57,17.32-2.35,9.07,0,18.13,0,27.2,0,4.99.62,9.99,1.16,14.97,1.88,33.92,4.94,64.97,17.15,92.45,37.64,45.04,33.57,72.27,78.15,81.38,133.61.96,5.87,1.61,11.8,2.4,17.7Zm-179.19,90.22v-4.76c0-27.66.03-55.32-.01-82.98-.01-9.19-5.2-14.42-14.33-14.45-15.99-.06-31.98-.05-47.97,0-8.53.02-14.4,5.23-14.47,12.69-.07,7.56,5.91,12.82,14.69,12.87,3.54.02,7.08,0,10.55,0v76.63c-4.17,0-8.03-.09-11.88.02-7.65.23-13.23,5.54-13.36,12.59-.13,7.14,5.59,12.89,13.41,12.92,25.18.11,50.36.1,75.54,0,7.65-.03,13.24-5.49,13.38-12.54.15-7.13-5.58-12.74-13.38-12.96-3.85-.11-7.71-.02-12.17-.02Zm-.05-153.34c-.06-13.78-11.7-25.4-25.51-25.47-13.74-.06-25.43,11.51-25.62,25.36-.18,13.79,11.89,25.84,25.71,25.67,13.87-.17,25.47-11.84,25.42-25.56Z"/>
  </g>
</svg>