<?xml version="1.0" encoding="UTF-8"?>
<svg id="Layer_2" data-name="Layer 2" xmlns="http://www.w3.org/2000/svg" viewBox="0 0 318.93 511.07">
  <defs>
    <style>
      .cls-1 {
        fill: #2c423b;
      }
    </style>
  </defs>
  <g id="Layer_1-2" data-name="Layer 1">
    <g>
      <path class="cls-1" d="m278.54,0c9.23,2.39,18,5.69,25.05,12.5,9.27,8.93,14.84,19.64,14.9,32.62.18,37.75.11,75.5.12,113.24,0,.49-.17.98-.32,1.84H0v-5.67c0-35.25-.01-70.51,0-105.76C.02,24.22,14.1,6.57,38.16.84c.62-.15,1.18-.55,1.76-.84,79.54,0,159.08,0,238.62,0Zm-53.94,95c0,5.15-.06,10.3.01,15.45.14,8.79,6.1,15.21,14.26,15.48,8.38.27,15.19-5.5,15.52-14.15.42-11.11.42-22.27-.03-33.38-.34-8.34-7.32-14.38-15.16-14.14-8.11.24-14.4,6.77-14.58,15.3-.11,5.15-.02,10.3-.02,15.45Z"/>
      <path class="cls-1" d="m47.98,479.32c-18.22-.85-32.19-8.2-41.48-23.48C2.28,448.9.02,441.31.02,433.13c-.01-79.5-.01-158.99,0-238.49,0-1.29.17-2.58.27-4.1h318.38v6.64c0,76.67-.51,153.34.26,230,.3,29.19-19.42,51.31-48.4,52.17,0,5.23.03,10.49,0,15.76-.06,9.35-6.14,15.88-14.81,15.94-8.91.06-15.05-6.49-15.1-16.15-.02-5.11,0-10.22,0-15.57H78.05c0,5.28.06,10.39-.01,15.48-.14,9.81-6.15,16.26-15.02,16.24-8.77-.03-14.95-6.73-15.02-16.35-.04-4.97,0-9.94,0-15.39Zm176.61-199.79c0,12.8-.02,25.6,0,38.4.02,9.81,5.99,16.47,14.74,16.57,8.79.1,15.13-6.51,15.16-16.19.08-25.76.08-51.53,0-77.29-.03-9.6-6.45-16.46-15.04-16.42-8.64.04-14.84,6.89-14.87,16.54-.04,12.8,0,25.6,0,38.4Z"/>
    </g>
  </g>
</svg>