<?xml version="1.0" encoding="UTF-8"?>
<svg id="Layer_2" data-name="Layer 2" xmlns="http://www.w3.org/2000/svg" viewBox="0 0 342.85 383.25">
  <defs>
    <style>
      .cls-1 {
        fill: #2c423b;
      }
    </style>
  </defs>
  <g id="Layer_1-2" data-name="Layer 1">
    <g>
      <path class="cls-1" d="m120.48,383.25c-21.33-6.87-38.98-20.68-58.43-31.11-13.39-7.18-26.31-15.22-39.53-22.72C7.37,320.82-.01,307.9,0,290.49.05,208.16.01,125.83.03,43.49.03,20.93,14.01,4.25,36.17.36,38.24,0,40.39.02,42.5.02c62-.02,124-.04,186,0,23.77.01,42.16,18.29,42.33,42.11.13,17.21.06,34.43.01,51.65-.02,8.33-6.04,14.64-13.8,14.65-7.81.01-13.76-6.24-13.77-14.61-.03-16.97,0-33.93-.02-50.9-.02-9.37-5.84-15.32-15.06-15.33-52.77-.02-105.54-.01-158.31,0-.94,0-1.88.09-3.75.18,1.64,1.05,2.51,1.64,3.41,2.17,25.34,14.65,50.6,29.42,76.05,43.88,15.7,8.92,23.19,22.08,23.14,40.11-.15,58.51-.06,117.01-.06,175.52,0,1.6,0,3.19,0,5.08,1.57.1,2.77.24,3.96.24,17.96.01,35.93.03,53.89,0,11.15-.01,16.72-5.64,16.73-16.83,0-14.22-.01-28.44,0-42.66.01-8.66,5.87-15.03,13.76-15.01,7.89.02,13.8,6.39,13.82,15.01.03,14.35.02,28.69,0,43.04-.03,25.74-17.88,43.84-43.62,44.03-17.84.13-35.68.03-53.52.03-1.48,0-2.96,0-5.04,0,0,3.12.13,5.94-.02,8.75-.38,7.07.15,14.41-1.56,21.16-4.15,16.32-15.53,25.85-31.58,30.11-.79.21-1.55.57-2.32.86h-12.73Z"/>
      <path class="cls-1" d="m295.03,146.54c-4.76-4.72-9.53-9.41-14.27-14.15-3.99-4-5.08-8.85-3.42-14.11,1.68-5.34,5.61-8.43,11.12-9.34,4.5-.74,8.44.72,11.61,3.86,12.93,12.82,25.85,25.65,38.62,38.64,5.62,5.72,5.52,13.72-.14,19.44-12.71,12.87-25.49,25.66-38.36,38.37-5.69,5.62-14.02,5.55-19.46.17-5.52-5.46-5.54-13.95.18-19.75,4.6-4.67,9.42-9.12,14.15-13.66-.17-.34-.34-.69-.51-1.03-1.43,0-2.86,0-4.3,0-31.43,0-62.86.02-94.29-.01-10.11-.01-16.55-7.27-14.86-16.58,1.18-6.53,6.66-10.95,14-10.97,21.95-.07,43.9-.03,65.85-.03,11.21,0,22.43,0,33.64,0,.15-.28.3-.56.44-.83Z"/>
    </g>
  </g>
</svg>